<?xml version="1.0" encoding="UTF-8"?>
<svg width="20px" height="20px" viewBox="0 0 20 20" version="1.1" xmlns="http://www.w3.org/2000/svg" xmlns:xlink="http://www.w3.org/1999/xlink">
    <!-- Generator: Sketch 51.3 (57544) - http://www.bohemiancoding.com/sketch -->
    <title>Polaris-icon/Minor/Mono/Delete</title>
    <desc>Created with Sketch.</desc>
    <defs>
        <path d="M11,16 L14,16 L14,8 L11,8 L11,16 Z M6,16 L9,16 L9,8 L6,8 L6,16 Z M8,6 L12,6 L12,4 L8,4 L8,6 Z M17,6 L14,6 L14,4 C14,2.897 13.103,2 12,2 L8,2 C6.897,2 6,2.897 6,4 L6,6 L3,6 C2.447,6 2,6.448 2,7 C2,7.552 2.447,8 3,8 L4,8 L4,17 C4,17.552 4.447,18 5,18 L15,18 C15.553,18 16,17.552 16,17 L16,8 L17,8 C17.553,8 18,7.552 18,7 C18,6.448 17.553,6 17,6 Z" id="path-1"></path>
    </defs>
    <g id="Polaris-icon/Minor/Mono/Delete" stroke="none" stroke-width="1" fill="none" fill-rule="evenodd">
        <mask id="mask-2" fill="white">
            <use xlink:href="#path-1"></use>
        </mask>
        <use id="Icon" fill="#31373D" xlink:href="#path-1"></use>
        <g id="Color/Default" mask="url(#mask-2)"></g>
    </g>
</svg>