<?xml version="1.0" encoding="UTF-8"?>
<svg width="20px" height="20px" viewBox="0 0 20 20" version="1.1" xmlns="http://www.w3.org/2000/svg" xmlns:xlink="http://www.w3.org/1999/xlink">
    <!-- Generator: Sketch 51.3 (57544) - http://www.bohemiancoding.com/sketch -->
    <title>Polaris-icon/Major/Mono/Notification</title>
    <desc>Created with Sketch.</desc>
    <defs>
        <path d="M5.0119,14 C5.9999,12.208 5.9999,10.285 5.9999,8 C5.9999,5.794 7.7939,4 9.9999,4 C12.2059,4 13.9999,5.794 13.9999,8 C13.9999,10.285 13.9999,12.208 14.9889,14 L5.0119,14 Z M10.9999,17 C10.9999,17.552 10.5519,18 9.9999,18 C9.4489,18 8.9999,17.552 8.9999,17 C8.9999,16.448 9.4489,16 9.9999,16 C10.5519,16 10.9999,16.448 10.9999,17 L10.9999,17 Z M17.7069,14.293 C15.9999,12.586 15.9999,10.957 15.9999,8 C15.9999,5.033 13.8329,2.568 10.9999,2.09 L10.9999,1 C10.9999,0.447 10.5529,0 9.9999,0 C9.4479,0 8.9999,0.447 8.9999,1 L8.9999,2.09 C6.1669,2.568 3.9999,5.033 3.9999,8 C3.9999,10.957 3.9999,12.586 2.2929,14.293 C2.0069,14.579 1.9209,15.009 2.0759,15.383 C2.2309,15.757 2.5959,16 2.9999,16 L7.1839,16 C7.0699,16.313 6.9999,16.647 6.9999,17 C6.9999,18.654 8.3459,20 9.9999,20 C11.6549,20 12.9999,18.654 12.9999,17 C12.9999,16.647 12.9309,16.313 12.8169,16 L16.9999,16 C17.4049,16 17.7699,15.757 17.9239,15.383 C18.0789,15.009 17.9929,14.579 17.7069,14.293 L17.7069,14.293 Z" id="path-1"></path>
    </defs>
    <g id="Polaris-icon/Major/Mono/Notification" stroke="none" stroke-width="1" fill="none" fill-rule="evenodd">
        <mask id="mask-2" fill="white">
            <use xlink:href="#path-1"></use>
        </mask>
        <use id="Icon" fill="#31373D" xlink:href="#path-1"></use>
        <g id="Color/Default" mask="url(#mask-2)"></g>
    </g>
</svg>